<?xml version="1.0" encoding="UTF-8"?>
<svg width="24px" height="24px" viewBox="0 0 24 24" version="1.1" xmlns="http://www.w3.org/2000/svg" xmlns:xlink="http://www.w3.org/1999/xlink">
        <path d="M15,2 L16.83,4 L20,4 C21.1,4 22,4.9 22,6 L22,6 L22,18 C22,19.1 21.1,20 20,20 L20,20 L4,20 C2.9,20 2,19.1 2,18 L2,18 L2,6 C2,4.9 2.9,4 4,4 L4,4 L7.17,4 L9,2 L15,2 Z M12,7 C9.24,7 7,9.24 7,12 C7,14.76 9.24,17 12,17 C14.76,17 17,14.76 17,12 C17,9.24 14.76,7 12,7 Z M12,8.8 C13.7673112,8.8 15.2,10.2326888 15.2,12 C15.2,13.7673112 13.7673112,15.2 12,15.2 C10.2326888,15.2 8.8,13.7673112 8.8,12 C8.8,10.2326888 10.2326888,8.8 12,8.8 Z" id="path-1"></path>
</svg>