<svg width="24" height="24" viewBox="0 0 24 24" fill="none" xmlns="http://www.w3.org/2000/svg">
<path d="M19.6361 5.39641C18.1907 4.73466 16.6648 4.26519 15.0974 4C14.8829 4.38343 14.6888 4.77793 14.5159 5.18185C12.8463 4.93025 11.1484 4.93025 9.47883 5.18185C9.30589 4.77797 9.11182 4.38348 8.89742 4C7.32898 4.26743 5.80206 4.73802 4.35518 5.39987C1.48276 9.64968 0.704089 13.7939 1.09342 17.8793C2.77559 19.1222 4.65841 20.0674 6.66004 20.6739C7.11075 20.0677 7.50957 19.4246 7.85227 18.7515C7.20136 18.5083 6.57312 18.2084 5.97481 17.8551C6.13228 17.7409 6.28628 17.6232 6.43509 17.509C8.17602 18.3278 10.0762 18.7523 12 18.7523C13.9238 18.7523 15.8239 18.3278 17.5649 17.509C17.7154 17.6319 17.8694 17.7496 18.0252 17.8551C17.4257 18.209 16.7963 18.5095 16.1442 18.7532C16.4865 19.426 16.8854 20.0686 17.3365 20.6739C19.3398 20.0699 21.2241 19.1251 22.9065 17.8811C23.3634 13.1433 22.1261 9.03712 19.6361 5.39641ZM8.34543 15.3668C7.26048 15.3668 6.36415 14.3823 6.36415 13.171C6.36415 11.9597 7.22934 10.9665 8.34197 10.9665C9.4546 10.9665 10.344 11.9597 10.325 13.171C10.3059 14.3823 9.45114 15.3668 8.34543 15.3668ZM15.6545 15.3668C14.5679 15.3668 13.675 14.3823 13.675 13.171C13.675 11.9597 14.5402 10.9665 15.6545 10.9665C16.7689 10.9665 17.6514 11.9597 17.6324 13.171C17.6133 14.3823 16.7602 15.3668 15.6545 15.3668Z" fill="black"/>
</svg>
