<svg width="24" height="24" viewBox="0 0 24 24" fill="none" xmlns="http://www.w3.org/2000/svg">
<path d="M15.2125 9.48417H11.3892V2H15.2125C17.2758 2 18.9542 3.67833 18.9542 5.74167C18.9542 7.805 17.2758 9.48417 15.2125 9.48417ZM12.615 8.25833H15.2125C16.6 8.25833 17.7283 7.12917 17.7283 5.7425C17.7283 4.35583 16.5992 3.22667 15.2125 3.22667H12.615V8.25833ZM12.615 9.48417H8.7925C6.72917 9.48417 5.05084 7.80583 5.05084 5.7425C5.05084 3.67917 6.72917 2 8.7925 2H12.6158V9.48417H12.615ZM8.7925 3.22583C7.405 3.22583 6.27667 4.355 6.27667 5.74167C6.27667 7.12833 7.405 8.25833 8.7925 8.25833H11.39V3.22583H8.7925ZM12.615 15.7417H8.7925C6.72917 15.7417 5.05084 14.0633 5.05084 12C5.05084 9.93667 6.72917 8.25833 8.7925 8.25833H12.6158V15.7417H12.615ZM8.7925 9.48417C7.405 9.48417 6.27667 10.6133 6.27667 12C6.27667 13.3867 7.40584 14.5158 8.7925 14.5158H11.39V9.48417H8.7925ZM8.8125 22C6.73834 22 5.05 20.3217 5.05 18.2583C5.05 16.195 6.72834 14.5167 8.79167 14.5167H12.615V18.2175C12.615 20.3033 10.9092 22 8.8125 22ZM8.7925 15.7417C8.12553 15.7425 7.48613 16.0079 7.01451 16.4795C6.54289 16.9511 6.27755 17.5905 6.27667 18.2575C6.27667 19.645 7.41417 20.7733 8.81334 20.7733C10.2342 20.7733 11.3908 19.6267 11.3908 18.2167V15.7417H8.7925ZM15.2125 15.7417H15.1308C13.0675 15.7417 11.3892 14.0633 11.3892 12C11.3892 9.93667 13.0675 8.25833 15.1308 8.25833H15.2125C17.2758 8.25833 18.9542 9.93667 18.9542 12C18.9542 14.0633 17.2758 15.7417 15.2125 15.7417ZM15.1317 9.48417C13.7442 9.48417 12.6158 10.6133 12.6158 12C12.6158 13.3867 13.745 14.5158 15.1317 14.5158H15.2133C16.6008 14.5158 17.7292 13.3867 17.7292 12C17.7292 10.6133 16.5992 9.48417 15.2125 9.48417H15.1317Z" fill="black"/>
</svg>
