<svg width="24" height="24" viewBox="0 0 24 24" fill="none" xmlns="http://www.w3.org/2000/svg">
<path d="M9.1682 16.1454C8.21526 16.1488 7.39707 15.5746 7.01158 14.9065C6.80518 14.6148 6.39751 14.5108 6.39183 14.9065V16.7339C6.39183 17.4679 6.1246 18.103 5.58899 18.6386C5.06875 19.1583 4.43421 19.4182 3.68426 19.4182C2.95079 19.4182 2.31569 19.1583 1.78009 18.6381C1.26041 18.103 1 17.4679 1 16.7339V6.68428C1 6.11854 1.16091 5.60625 1.48215 5.14741C1.81818 4.67322 2.24689 4.34401 2.76714 4.16093C3.06086 4.05325 3.37142 3.99876 3.68426 4.00002C4.5104 4.00002 5.19895 4.32127 5.74933 4.96376L8.4967 8.15235C8.55811 8.19783 8.73778 8.54865 9.16763 8.54865C9.59861 8.54865 9.80159 8.19783 9.86243 8.15178L12.5865 4.96376C13.1528 4.32127 13.8487 4.00002 14.6749 4.00002C14.9808 4.00002 15.2867 4.05347 15.5926 4.16093C16.1122 4.34401 16.533 4.67265 16.8548 5.14741C17.1908 5.60625 17.3591 6.11854 17.3591 6.68428V16.7339C17.3591 17.4679 17.0919 18.103 16.5563 18.6386C16.0361 19.1583 15.401 19.4182 14.6516 19.4182C13.9175 19.4182 13.283 19.1583 12.7468 18.6381C12.2271 18.103 11.9673 17.4679 11.9673 16.7339V14.9065C11.9218 14.4078 11.4812 14.7223 11.3248 14.9065C10.912 15.6712 10.1206 16.1414 9.1682 16.1454ZM20.6597 8.6345C20.0172 8.6345 19.4667 8.41276 19.008 7.96927C18.5645 7.51061 18.3428 6.96004 18.3428 6.31755C18.3428 5.67505 18.5645 5.13206 19.008 4.68857C19.4667 4.22992 20.0172 4.00059 20.6597 4.00059C21.3022 4.00059 21.853 4.22992 22.312 4.68857C22.7707 5.13206 23 5.67505 23 6.31755C23 6.96004 22.7707 7.51061 22.312 7.96927C21.853 8.41276 21.3022 8.6345 20.6597 8.6345ZM20.6825 9.09391C21.325 9.09391 21.8682 9.32324 22.312 9.78189C22.7707 10.2405 23 10.7913 23 11.4342V17.1012C23 17.7437 22.7707 18.2943 22.312 18.7529C21.8685 19.1964 21.3253 19.4182 20.6825 19.4182C20.0404 19.4182 19.4898 19.1964 19.0308 18.7529C18.5721 18.2943 18.3428 17.7437 18.3428 17.1012V11.4342C18.3428 10.7917 18.5721 10.2409 19.0308 9.78189C19.4894 9.32324 20.04 9.09391 20.6825 9.09391Z" fill="black"/>
</svg>
