<svg width="24" height="24" viewBox="0 0 24 24" fill="none" xmlns="http://www.w3.org/2000/svg">
<path fill-rule="evenodd" clip-rule="evenodd" d="M5.29138 5.48839C5.91024 5.99119 6.1424 5.95283 7.30453 5.87529L18.2603 5.21744C18.4927 5.21744 18.2995 4.98563 18.222 4.94712L16.4024 3.63174C16.0538 3.36106 15.5893 3.05109 14.6991 3.12863L4.09057 3.90238C3.70368 3.94074 3.62641 4.13419 3.78048 4.28923L5.29138 5.48839ZM5.94914 8.04164V19.569C5.94914 20.1886 6.25873 20.4203 6.95552 20.382L18.9959 19.6853C19.6931 19.647 19.7707 19.2209 19.7707 18.7176V7.26754C19.7707 6.7651 19.5774 6.49414 19.1507 6.53282L6.56835 7.26754C6.104 7.30657 5.94914 7.53884 5.94914 8.04164ZM17.8354 8.65999C17.9126 9.00849 17.8354 9.35667 17.4862 9.39585L16.9061 9.51144V18.0217C16.4024 18.2924 15.938 18.4472 15.5509 18.4472C14.9312 18.4472 14.776 18.2536 14.3119 17.6737L10.5171 11.7165V17.4803L11.718 17.7512C11.718 17.7512 11.718 18.4472 10.7492 18.4472L8.07839 18.6021C8.00081 18.4472 8.07839 18.0607 8.3493 17.9833L9.04625 17.7901V10.1692L8.07859 10.0917C8.00097 9.74321 8.19426 9.24072 8.73667 9.20174L11.6018 9.0086L15.5509 15.0434V9.70485L14.544 9.5893C14.4668 9.16326 14.776 8.85391 15.1632 8.81555L17.8354 8.65999ZM3.19986 2.85799L14.2344 2.04537C15.5895 1.92916 15.9381 2.00701 16.7898 2.62567L20.3122 5.10138C20.8934 5.52711 21.0871 5.64301 21.0871 6.10709V19.6853C21.0871 20.5363 20.7771 21.0395 19.6933 21.1165L6.87884 21.8904C6.06524 21.9292 5.67804 21.8132 5.25196 21.2713L2.65804 17.9058C2.19329 17.2863 2 16.8229 2 16.2806V4.21142C2 3.51552 2.31009 2.93503 3.19986 2.85799Z" fill="black"/>
</svg>
