<svg width="24" height="24" viewBox="0 0 24 24" fill="none" xmlns="http://www.w3.org/2000/svg">
<path d="M12 8.85982C13.2854 8.85982 14.3274 9.90227 14.3274 11.1882C14.3274 12.4741 13.2854 13.5166 12 13.5166C10.7147 13.5166 9.6728 12.4741 9.6728 11.1882C9.67297 9.90227 10.7149 8.85982 12 8.85982ZM18.6992 12.0045C18.6992 14.3023 17.5371 16.3335 15.7703 17.5415C15.6803 17.603 15.5582 17.5334 15.565 17.4246C15.5897 17.016 15.5974 16.6542 15.5764 16.2818C15.5694 16.1594 15.6175 16.0403 15.7068 15.9563C16.7605 14.9666 17.4197 13.5612 17.4197 12.0045C17.4197 8.94368 14.8715 6.46702 11.7861 6.5866C8.9471 6.69666 6.65743 9.01761 6.58262 11.859C6.54011 13.4735 7.20724 14.936 8.2938 15.9566C8.38304 16.0404 8.4309 16.1596 8.42408 16.2818C8.40317 16.6542 8.41077 17.0159 8.43566 17.4248C8.44222 17.5334 8.32049 17.6032 8.23065 17.5418C6.44119 16.3187 5.27195 14.2511 5.30176 11.9172C5.3472 8.36872 8.19082 5.44489 11.7353 5.3075C15.5491 5.15965 18.6992 8.22087 18.6992 12.0045ZM11.9712 2.00004C17.4984 1.98439 22 6.47843 22 12.0046C22 16.3611 19.202 20.0755 15.3096 21.4452C15.2142 21.4788 15.1174 21.3994 15.1324 21.2994C15.184 20.9572 15.2325 20.6132 15.2771 20.2749C15.2929 20.1554 15.3685 20.052 15.479 20.0037C18.561 18.6569 20.7204 15.5785 20.7204 12.0045C20.7204 7.16995 16.7695 3.24127 11.9283 3.28043C7.19264 3.31874 3.3257 7.1811 3.28008 11.919C3.24527 15.5292 5.41433 18.6459 8.52049 20.0035C8.63099 20.0517 8.70719 20.1548 8.72291 20.2744C8.76758 20.6127 8.81621 20.957 8.8677 21.2994C8.88274 21.3995 8.78589 21.4788 8.69043 21.4452C4.76051 20.0622 1.94618 16.2891 2.00078 11.8782C2.0686 6.43313 6.52845 2.01552 11.9712 2.00004ZM12.0001 14.4574C12.885 14.4574 13.6345 14.7462 14.0611 15.1966C14.2838 15.4317 14.4016 15.6726 14.4387 16.0159C14.5104 16.6806 14.4701 17.253 14.3923 18.1681C14.3181 19.04 14.1774 20.2027 13.9936 21.387C13.8628 22.2298 13.7566 22.6847 13.6598 23.0104C13.5029 23.5382 12.9168 24 12.0001 24C11.0835 24 10.4972 23.5382 10.3404 23.0104C10.2437 22.6847 10.1374 22.2298 10.0066 21.387C9.82286 20.2027 9.68213 19.04 9.60792 18.1681C9.53008 17.253 9.48973 16.6807 9.56153 16.0159C9.59859 15.6726 9.71634 15.4317 9.93906 15.1966C10.3658 14.7462 11.1154 14.4574 12.0001 14.4574Z" fill="black"/>
</svg>
