<svg width="24" height="24" viewBox="0 0 24 24" fill="none" xmlns="http://www.w3.org/2000/svg">
<path d="M5 21C4.45 21 3.97917 20.8042 3.5875 20.4125C3.19583 20.0208 3 19.55 3 19C3 18.45 3.19583 17.9792 3.5875 17.5875C3.97917 17.1958 4.45 17 5 17C5.55 17 6.02083 17.1958 6.4125 17.5875C6.80417 17.9792 7 18.45 7 19C7 19.55 6.80417 20.0208 6.4125 20.4125C6.02083 20.8042 5.55 21 5 21ZM17 21C17 19.05 16.6333 17.2292 15.9 15.5375C15.1667 13.8458 14.1667 12.3667 12.9 11.1C11.6333 9.83333 10.1542 8.83333 8.4625 8.1C6.77083 7.36667 4.95 7 3 7V4C5.36667 4 7.575 4.44167 9.625 5.325C11.675 6.20833 13.475 7.425 15.025 8.975C16.575 10.525 17.7917 12.325 18.675 14.375C19.5583 16.425 20 18.6333 20 21H17ZM11 21C11 19.8833 10.7917 18.8458 10.375 17.8875C9.95833 16.9292 9.38333 16.0833 8.65 15.35C7.91667 14.6167 7.07083 14.0417 6.1125 13.625C5.15417 13.2083 4.11667 13 3 13V10C4.53333 10 5.9625 10.2875 7.2875 10.8625C8.6125 11.4375 9.775 12.225 10.775 13.225C11.775 14.225 12.5625 15.3875 13.1375 16.7125C13.7125 18.0375 14 19.4667 14 21H11Z" fill="black"/>
</svg>
