<svg width="24" height="24" viewBox="0 0 24 24" fill="none" xmlns="http://www.w3.org/2000/svg">
<path d="M12.3967 2.00804C6.87789 1.78868 2.2274 6.08453 2.00804 11.6033C1.78868 17.1221 6.08544 21.7726 11.6033 21.992C17.1221 22.2113 21.7726 17.9155 21.992 12.3967C22.2104 6.87789 17.9146 2.22649 12.3967 2.00804ZM16.6176 16.6578C16.4933 16.8772 16.2511 16.9868 16.0152 16.9539C15.943 16.9439 15.8708 16.9201 15.8032 16.8817C14.4815 16.1295 13.0411 15.6396 11.522 15.4257C10.0029 15.2118 8.48289 15.2859 7.00493 15.6451C6.68412 15.7228 6.36147 15.5263 6.28378 15.2054C6.20609 14.8846 6.4026 14.562 6.72342 14.4843C8.34853 14.0894 10.0193 14.0081 11.6883 14.243C13.3573 14.4779 14.9404 15.0162 16.3946 15.8434C16.6806 16.007 16.7812 16.3708 16.6185 16.6578H16.6176ZM17.9319 14.0328C17.7281 14.4093 17.2565 14.5501 16.8799 14.3463C15.3334 13.5099 13.6589 12.9606 11.9031 12.7138C10.1473 12.4671 8.38692 12.5338 6.66949 12.9113C6.57626 12.9314 6.48395 12.935 6.39437 12.9222C6.0827 12.8784 5.81581 12.6462 5.74451 12.3199C5.6522 11.9013 5.91726 11.4872 6.33588 11.3949C8.23428 10.9772 10.1802 10.9032 12.1197 11.1756C14.0584 11.4479 15.9092 12.0548 17.6184 12.9798C17.9959 13.1836 18.1358 13.6544 17.9319 14.0318V14.0328ZM19.3889 11.0732C19.1969 11.4425 18.7975 11.6335 18.4081 11.5786C18.303 11.564 18.1997 11.5311 18.1001 11.4799C16.2995 10.5431 14.36 9.92428 12.3354 9.64003C10.3109 9.35577 8.27541 9.41609 6.28652 9.82009C5.76919 9.9252 5.26557 9.59067 5.16046 9.07425C5.05535 8.55692 5.38988 8.0533 5.90629 7.94819C8.10906 7.50124 10.3612 7.43452 12.6014 7.74894C14.8417 8.06336 16.9878 8.74887 18.9821 9.78627C19.4501 10.0294 19.632 10.6061 19.3889 11.0741V11.0732Z" fill="black"/>
</svg>
