<svg width="24" height="24" viewBox="0 0 24 24" fill="none" xmlns="http://www.w3.org/2000/svg">
<path d="M17.8375 6.00915C17.1694 5.57493 16.6203 4.98086 16.2399 4.28078C15.8595 3.5807 15.6598 2.79676 15.6589 2H12.2194L12.2134 15.7799C12.1917 16.3462 12.004 16.8935 11.6735 17.3538C11.3431 17.8142 10.8845 18.1671 10.3549 18.3688C9.82537 18.5704 9.24819 18.6119 8.69525 18.4879C8.14231 18.364 7.63804 18.0801 7.24523 17.6717C6.85241 17.2633 6.5884 16.7484 6.48607 16.191C6.38374 15.6337 6.4476 15.0585 6.66971 14.5372C6.89181 14.0159 7.26235 13.5714 7.7352 13.2591C8.20804 12.9468 8.76229 12.7805 9.32895 12.7809C9.61837 12.7818 9.90596 12.8269 10.1818 12.9145V9.4042C9.89925 9.36434 9.61431 9.3437 9.32895 9.34243C5.83906 9.34243 3 12.1808 3 15.671C3.00256 17.349 3.67037 18.9575 4.85701 20.1439C6.04365 21.3303 7.6523 21.9978 9.33029 22C12.8198 22 15.6589 19.1616 15.6589 15.671V8.68359C17.0523 9.68614 18.7259 10.2247 20.4424 10.223V6.78353C19.5173 6.7843 18.612 6.51518 17.8375 6.00915Z" fill="black"/>
</svg>
