<svg width="24" height="24" viewBox="0 0 24 24" fill="none" xmlns="http://www.w3.org/2000/svg">
<g clip-path="url(#clip0_6552_3205)">
<path d="M11.7482 12.6173V12.6175L14.3886 16.3941H15.7165L9.60402 7.65084H8.27609L11.7482 12.6173Z" fill="black"/>
<path fill-rule="evenodd" clip-rule="evenodd" d="M12 2C6.47715 2 2 6.47715 2 12C2 17.5228 6.47715 22 12 22C17.5228 22 22 17.5228 22 12C22 6.47715 17.5228 2 12 2ZM16.5806 7L12.9323 11.2408H12.9321L16.9 17.0154H13.9818L11.3098 13.1268L7.96457 17.0154H7.1L10.926 12.5682L7.1 7H10.0182L12.5483 10.6822L15.7161 7H16.5806Z" fill="black"/>
</g>
<defs>
<clipPath id="clip0_6552_3205">
<rect width="24" height="24" fill="white"/>
</clipPath>
</defs>
</svg>
