<svg width="24" height="24" viewBox="0 0 24 24" fill="none" xmlns="http://www.w3.org/2000/svg">
<path fill-rule="evenodd" clip-rule="evenodd" d="M20.5968 4.48299C21.544 4.74921 22.2883 5.53075 22.5418 6.52526H22.54C23 8.32602 23 12.0854 23 12.0854C23 12.0854 23 15.8447 22.54 17.6455C22.2865 18.64 21.5421 19.4216 20.595 19.6878C18.88 20.1708 12 20.1708 12 20.1708C12 20.1708 5.12002 20.1708 3.405 19.6878C2.45785 19.4216 1.71353 18.64 1.45999 17.6455C1 15.8447 1 12.0854 1 12.0854C1 12.0854 1 8.32602 1.45999 6.52526C1.71353 5.53075 2.45785 4.74921 3.405 4.48299C5.12002 4 12 4 12 4C12 4 18.88 4 20.5968 4.48299ZM15.517 12.0854L9.79964 8.62076V15.55L15.517 12.0854Z" fill="black"/>
</svg>
